<?xml version="1.0" encoding="UTF-8"?>
<svg id="b" data-name="レイヤー 2" xmlns="http://www.w3.org/2000/svg" viewBox="0 0 421.57 113.09">
  <g id="c" data-name="レイヤー 1">
    <g fill="#245E85">
      <path d="M0,111.22v-14.45L42.96,31.45H4.15V11.51h68.26v14.45L29.44,91.14h43.36v20.08H0Z"/>
      <path d="M99.17,24.49c-4.02,0-7.23-1.11-9.64-3.35-2.41-2.23-3.61-5.22-3.61-8.97s1.2-6.6,3.61-8.83c2.41-2.23,5.62-3.35,9.64-3.35s7.11,1.12,9.57,3.35c2.45,2.23,3.68,5.18,3.68,8.83s-1.23,6.74-3.68,8.97c-2.46,2.23-5.64,3.35-9.57,3.35ZM87.26,111.22V35.06h23.82v76.15h-23.82Z"/>
      <path d="M160.2,113.09c-6.34,0-11.49-1.27-15.46-3.81-3.97-2.54-6.87-6.07-8.7-10.57-1.83-4.5-2.74-9.75-2.74-15.73v-29.31h-10.31v-17.67l11.78-.94,2.68-20.21h19.67v20.21h17.93v18.6h-17.93v29.04c0,4.19.91,7.21,2.74,9.03,1.83,1.83,4.13,2.74,6.89,2.74,1.25,0,2.5-.15,3.75-.47,1.25-.31,2.32-.65,3.21-1l3.75,17.26c-1.96.63-4.35,1.25-7.16,1.87-2.81.62-6.18.94-10.1.94Z"/>
      <path d="M209.05,113.09c-4.64,0-8.66-1.05-12.04-3.15-3.39-2.1-6-4.91-7.83-8.43-1.83-3.52-2.74-7.38-2.74-11.58,0-8.03,3.35-14.3,10.04-18.8,6.69-4.5,17.44-7.56,32.25-9.17-.18-2.05-.67-3.81-1.47-5.29s-2.03-2.59-3.68-3.35c-1.65-.76-3.77-1.14-6.36-1.14-3.03,0-6.16.58-9.37,1.74-3.21,1.16-6.74,2.81-10.57,4.95l-8.3-15.66c3.39-2.05,6.85-3.81,10.37-5.29,3.52-1.47,7.16-2.63,10.91-3.48,3.75-.85,7.58-1.27,11.51-1.27,6.6,0,12.18,1.25,16.73,3.75,4.55,2.5,8.03,6.31,10.44,11.44,2.41,5.13,3.61,11.67,3.61,19.61v43.23h-19.41l-1.61-7.63h-.67c-3.12,2.77-6.49,5.04-10.1,6.83-3.61,1.78-7.52,2.68-11.71,2.68ZM217.21,94.62c2.41,0,4.5-.54,6.29-1.61,1.78-1.07,3.52-2.54,5.22-4.42v-12.18c-4.91.62-8.81,1.52-11.71,2.68-2.9,1.16-4.95,2.5-6.16,4.01-1.2,1.52-1.81,3.17-1.81,4.95,0,2.23.74,3.88,2.21,4.95,1.47,1.07,3.46,1.61,5.96,1.61Z"/>
      <path d="M290.15,113.09c-4.64,0-8.66-1.05-12.04-3.15-3.39-2.1-6-4.91-7.83-8.43-1.83-3.52-2.74-7.38-2.74-11.58,0-8.03,3.35-14.3,10.04-18.8,6.69-4.5,17.44-7.56,32.25-9.17-.18-2.05-.67-3.81-1.47-5.29-.8-1.47-2.03-2.59-3.68-3.35-1.65-.76-3.77-1.14-6.36-1.14-3.03,0-6.16.58-9.37,1.74-3.21,1.16-6.74,2.81-10.57,4.95l-8.3-15.66c3.39-2.05,6.85-3.81,10.37-5.29,3.52-1.47,7.16-2.63,10.91-3.48,3.75-.85,7.58-1.27,11.51-1.27,6.6,0,12.18,1.25,16.73,3.75,4.55,2.5,8.03,6.31,10.44,11.44,2.41,5.13,3.61,11.67,3.61,19.61v43.23h-19.41l-1.61-7.63h-.67c-3.12,2.77-6.49,5.04-10.1,6.83-3.61,1.78-7.52,2.68-11.71,2.68ZM298.31,94.62c2.41,0,4.5-.54,6.29-1.61,1.78-1.07,3.52-2.54,5.22-4.42v-12.18c-4.91.62-8.81,1.52-11.71,2.68-2.9,1.16-4.95,2.5-6.16,4.01-1.2,1.52-1.81,3.17-1.81,4.95,0,2.23.74,3.88,2.21,4.95,1.47,1.07,3.46,1.61,5.96,1.61Z"/>
      <path d="M351.98,111.22V35.06h19.41l1.74,9.5h.4c3.12-3.12,6.67-5.8,10.64-8.03,3.97-2.23,8.54-3.35,13.72-3.35,8.3,0,14.32,2.77,18.07,8.3,3.75,5.53,5.62,13.07,5.62,22.62v47.11h-23.82v-44.17c0-5.26-.71-8.83-2.14-10.71-1.43-1.87-3.66-2.81-6.69-2.81-2.68,0-4.95.58-6.83,1.74-1.87,1.16-3.97,2.86-6.29,5.09v50.86h-23.82Z"/>
    </g>
  </g>
</svg>